<?xml version="1.0" encoding="UTF-8"?>
<svg xmlns="http://www.w3.org/2000/svg" xmlns:xlink="http://www.w3.org/1999/xlink" width="200px" height="200px" viewBox="0 0 200 200" version="1.1">
<g id="surface1">
<path style=" stroke:none;fill-rule:evenodd;fill:rgb(1.176471%,67.45098%,7.45098%);fill-opacity:1;" d="M 97.929688 18.402344 C 49.75 18.402344 10.527344 57.628906 10.527344 105.800781 C 10.527344 153.980469 49.75 193.199219 97.929688 193.199219 C 146.105469 193.199219 185.328125 153.980469 185.328125 105.800781 C 185.328125 84.980469 178.277344 66.347656 166.308594 51.09375 L 158.085938 60.847656 C 168.519531 73.695312 172.601562 87.957031 172.601562 105.800781 C 172.601562 147.085938 139.210938 180.453125 97.929688 180.453125 C 56.644531 180.453125 23.253906 147.085938 23.253906 105.800781 C 23.253906 64.515625 56.644531 31.132812 97.929688 31.132812 C 111.011719 31.132812 120.792969 33.011719 131.476562 38.914062 L 139.296875 28.644531 C 126.792969 21.738281 113.191406 18.402344 97.929688 18.402344 Z M 97.929688 18.402344 "/>
<path style=" stroke:none;fill-rule:nonzero;fill:rgb(1.176471%,67.45098%,7.45098%);fill-opacity:1;" d="M 65.582031 94.304688 C 69.105469 94.304688 71.769531 97.199219 73.582031 102.988281 C 77.191406 113.832031 79.769531 119.253906 81.308594 119.253906 C 82.476562 119.253906 83.695312 118.347656 84.960938 116.535156 C 110.359375 75.875 133.855469 42.980469 155.453125 17.859375 C 161.054688 11.351562 169.960938 8.097656 182.160156 8.097656 C 185.042969 8.097656 186.992188 8.371094 187.980469 8.910156 C 188.980469 9.453125 189.476562 10.132812 189.476562 10.945312 C 189.476562 12.210938 187.980469 14.695312 185.003906 18.398438 C 150.117188 60.332031 117.769531 104.609375 87.949219 151.242188 C 85.867188 154.496094 81.625 156.125 75.203125 156.125 C 68.695312 156.125 64.855469 155.851562 63.6875 155.304688 C 60.613281 153.957031 56.992188 147.042969 52.832031 134.570312 C 48.140625 120.746094 45.792969 112.0625 45.792969 108.546875 C 45.792969 104.746094 48.949219 101.085938 55.277344 97.558594 C 59.160156 95.390625 62.601562 94.304688 65.582031 94.304688 "/>
</g>
</svg>
